# xmcd CD database file
#
# Track frame offsets:
#	150
#	21505
#	40750
#	65180
#	90800
#	113812
#	138060
#	162497
#	183282
#
# Disc length: 2693 seconds
#
# Revision: 0
# Processed by: cddbd v1.5.1PL0 Copyright (c) Steve Scherf et al.
# Submitted via: CDex 1.51
#
DISCID=700a8309
DTITLE=伊東ゆかり - Ｂｅａｕｔｉｆｕｌ　Ｄａｙｓ
DYEAR=1995
DGENRE=J-Pop
TTITLE0=七色の絵の具
TTITLE1=Ｂｅａｕｔｉｆｕｌ　Ｄａｙｓ
TTITLE2=想い
TTITLE3=ラブ･レター
TTITLE4=そこからとこれからの季節
TTITLE5=やわらかな夜に
TTITLE6=突然の贈りもの
TTITLE7=あなたの隣に
TTITLE8=明日、めぐり逢い
EXTD=YEAR: 1995
EXTT0=
EXTT1=
EXTT2=
EXTT3=
EXTT4=
EXTT5=
EXTT6=
EXTT7=
EXTT8=
PLAYORDER=
